<?xml version="1.0" encoding="UTF-8"?>
<svg width="752pt" height="752pt" version="1.1" viewBox="0 0 752 752" xmlns="http://www.w3.org/2000/svg">
 <path d="m408.09 261.25c-40.559-40.535-106.53-40.535-147.07 0-40.535 40.547-40.535 106.52 0 147.07 20.281 20.266 46.895 30.395 73.531 30.395 26.613 0 53.254-10.129 73.531-30.395 40.535-40.551 40.535-106.52 0.003906-147.07zm-7.4062 139.66c-36.473 36.473-95.805 36.473-132.25 0-36.473-36.461-36.473-95.789 0-132.25 18.223-18.238 42.168-27.355 66.125-27.355 23.945 0 47.891 9.1172 66.125 27.355 36.473 36.457 36.473 95.789 0 132.25zm98.867 43.152c-1.9648-1.9414-5.4414-1.9414-7.4062 0l-6.1992 6.1992-30.672-30.684c40.938-58.062 34.359-138.58-16.281-189.23-27.918-27.918-65.016-43.293-104.44-43.293-39.434 0-76.52 15.375-104.44 43.293-57.582 57.594-57.582 151.28 0 208.88 28.516 28.516 66.535 43.113 104.65 43.113 29.609 0 59.234-8.9141 84.598-26.812l30.656 30.668-5.8242 5.8242c-2.043 2.043-2.043 5.3633 0 7.4062l54.082 54.059c7.3945 7.3945 17.215 11.469 27.676 11.469 10.445 0 20.281-4.0625 27.676-11.453 15.246-15.262 15.246-40.086 0-55.348zm-262.02-12.246c-53.508-53.496-53.508-140.57 0-194.06 25.938-25.949 60.391-40.227 97.031-40.227 36.625 0 71.094 14.277 97.031 40.227 48.082 48.07 53.559 125.16 12.695 179.38-47.27 64.922-146.61 74.875-206.76 14.684zm190.37 17.43c7.0273-5.6953 14.648-13.113 21.121-21.121l29.527 29.539-21.117 21.125zm118.33 96.84c-10.844 10.855-29.742 10.844-40.535 0l-50.391-50.367c-0.26172 0.26172 7.6328-7.5977 40.547-40.559l50.379 50.391c11.188 11.176 11.188 29.359 0 40.535z" fill="#fff"/>
</svg>
